<svg width="10" height="10" viewBox="0 0 10 10" fill="none" xmlns="http://www.w3.org/2000/svg">
<path d="M3.22222 2.77778V1M6.77778 2.77778V1M2.77778 4.55556H7.22222M1.88889 9H8.11111C8.34686 9 8.57295 8.90635 8.73965 8.73965C8.90635 8.57295 9 8.34686 9 8.11111V2.77778C9 2.54203 8.90635 2.31594 8.73965 2.14924C8.57295 1.98254 8.34686 1.88889 8.11111 1.88889H1.88889C1.65314 1.88889 1.42705 1.98254 1.26035 2.14924C1.09365 2.31594 1 2.54203 1 2.77778V8.11111C1 8.34686 1.09365 8.57295 1.26035 8.73965C1.42705 8.90635 1.65314 9 1.88889 9Z" stroke="#E7B181" stroke-linecap="round" stroke-linejoin="round"/>
</svg>
