<svg width="14" height="20" viewBox="0 0 14 20" fill="none" xmlns="http://www.w3.org/2000/svg">
<path d="M8.65701 6.6C9.1327 6.21328 9.4859 5.67003 9.66617 5.04779C9.84644 4.42555 9.84456 3.75616 9.66082 3.13517C9.47707 2.51418 9.12085 1.97336 8.643 1.58991C8.16516 1.20646 7.59013 1 7.00001 1C6.40989 1 5.83486 1.20646 5.35702 1.58991C4.87918 1.97336 4.52295 2.51418 4.33921 3.13517C4.15546 3.75616 4.15359 4.42555 4.33386 5.04779C4.51413 5.67003 4.86732 6.21328 5.34301 6.6" stroke="white" stroke-width="1.25" stroke-linecap="round" stroke-linejoin="round"/>
<path d="M8.63717 6.6001L10.6 7.87847C10.5512 8.26768 10.4389 8.64648 10.2674 9.0001H3.73265C3.56117 8.64648 3.44884 8.26768 3.40002 7.87847L5.36284 6.6001" stroke="white" stroke-width="1.25" stroke-linecap="round" stroke-linejoin="round"/>
<path d="M8.63915 8.99979C8.63915 12.9838 13 13.5661 13 17.4275C12.1894 18.389 9.31637 18.5998 7 18.5998C4.68363 18.5998 1.81058 18.3893 1 17.4275C1 13.5661 5.36085 12.9838 5.36085 8.99979" stroke="white" stroke-width="1.25" stroke-linecap="round" stroke-linejoin="round"/>
</svg>
