<svg width="15" height="17" viewBox="0 0 15 17" fill="none" xmlns="http://www.w3.org/2000/svg">
<path d="M8.03473 0V2.15492L10.1875 0.911699L10.7222 1.83837L8.03473 3.38959V7.09414L11.2431 5.24187V2.13888H12.3125V4.62426L14.1792 3.54734L14.7139 4.47347L12.8472 5.55093L15 6.79362L14.4653 7.72029L11.7778 6.168L8.56945 8.02027L11.7783 9.87308L14.4653 8.32132L15 9.24746L12.8472 10.4901L14.7139 11.5681L14.1792 12.4943L12.3125 11.4168V13.9027H11.2431V10.7992L8.03473 8.94641V12.6515L10.7222 14.2032L10.1875 15.1294L8.03473 13.8862V16.0416H6.96529V13.8862L4.81251 15.1294L4.27778 14.2032L6.96529 12.6515V8.94641L3.75697 10.7987V13.9027H2.68753V11.4163L0.821331 12.4943L0.28661 11.5681L2.15227 10.4901L0 9.24746L0.53472 8.32132L3.22171 9.87255L6.43004 8.02027L3.22225 6.168L0.53472 7.72029L0 6.79362L2.15281 5.55093L0.28661 4.47347L0.821331 3.54734L2.68753 4.62426V2.13888H3.75697V5.24187L6.96529 7.09414V3.38959L4.27778 1.83837L4.81251 0.911699L6.96529 2.15492V0H8.03473Z" fill="white"/>
</svg>
