<svg width="19" height="12" viewBox="0 0 19 12" fill="none" xmlns="http://www.w3.org/2000/svg">
<path d="M2.82976 5.42241C2.89913 5.47476 2.98464 5.50034 3.06984 5.50034C3.17271 5.50034 3.27512 5.46294 3.34756 5.39015C3.40441 5.33312 4.72873 3.98084 3.72455 2.88205C3.16756 2.27242 3.57881 1.91822 3.66877 1.85218C3.82434 1.74219 3.84962 1.54299 3.72416 1.40602C3.59771 1.26779 3.36654 1.24555 3.2082 1.3552C2.82346 1.62185 2.31572 2.36671 3.14958 3.27912C3.77487 3.96308 2.8018 4.9629 2.79227 4.97238C2.66013 5.10561 2.67626 5.30728 2.82976 5.42241Z" fill="white"/>
<path d="M6.04228 4.14587C6.11166 4.19823 6.19716 4.22381 6.28236 4.22381C6.38523 4.22381 6.48764 4.18641 6.56001 4.11362C6.61686 4.05659 7.94118 2.70431 6.93707 1.60545C6.38009 0.995888 6.79133 0.641623 6.8813 0.575578C7.03687 0.465593 7.06214 0.266389 6.93669 0.129425C6.81031 -0.00880869 6.57937 -0.0311129 6.42073 0.0786058C6.03598 0.345256 5.52825 1.09011 6.36211 2.00252C6.98747 2.68648 6.01432 3.6863 6.00479 3.69578C5.87273 3.82914 5.88886 4.03075 6.04228 4.14587Z" fill="white"/>
<path d="M8.88637 4.14587C8.95574 4.19823 9.04125 4.22381 9.12645 4.22381C9.22932 4.22381 9.33172 4.18641 9.40394 4.11362C9.46094 4.05659 10.7853 2.70431 9.78115 1.60545C9.22417 0.995888 9.63572 0.641623 9.72522 0.575578C9.88103 0.465593 9.9063 0.266389 9.78077 0.129425C9.65439 -0.00880869 9.42315 -0.0311129 9.26481 0.0786058C8.88007 0.345256 8.37241 1.09011 9.20619 2.00252C9.83132 2.68648 8.8584 3.6863 8.84888 3.69578C8.71674 3.82914 8.73325 4.03075 8.88637 4.14587Z" fill="white"/>
<path d="M16.3534 5.14831C17.4687 5.14831 18.3728 4.36243 18.3728 3.39301C18.3728 2.42358 17.4687 1.63771 16.3534 1.63771C15.2381 1.63771 14.334 2.42358 14.334 3.39301C14.334 4.36243 15.2381 5.14831 16.3534 5.14831Z" fill="white"/>
<path d="M2.20258 11.4921H16.797C18.0121 11.4921 19 10.6332 19 9.57724V7.76024C19 7.39496 18.5854 7.10727 17.9325 6.87949C17.9286 6.99228 17.9117 7.1058 17.8798 7.21859C17.8526 7.31549 17.8228 7.40905 17.7919 7.50067C18.0471 7.59196 18.2042 7.68017 18.2566 7.7575C18.2494 7.76899 18.2369 7.78088 18.2251 7.79296C18.2128 7.80552 18.2032 7.81761 18.186 7.83069C18.167 7.84505 18.14 7.85994 18.115 7.87464C18.0924 7.88799 18.0723 7.90108 18.0443 7.9151C18.0135 7.93006 17.9751 7.94562 17.9382 7.96118C17.9059 7.9752 17.8758 7.98896 17.8378 8.00299C17.8342 8.00452 17.8298 8.00579 17.8263 8.00726C17.7435 8.0307 17.6556 8.05901 17.5553 8.09708C17.4681 8.1304 17.3731 8.16032 17.2799 8.19117C17.4448 7.87357 17.6065 7.4962 17.7259 7.07108C17.9676 6.2153 17.161 5.44981 16.2276 5.40132C16.0308 5.39104 15.816 5.4096 15.5954 5.44373C15.2283 5.22262 14.494 4.90348 13.1264 4.68418C13.3904 4.18287 13.5524 3.49377 12.9937 2.88227C12.4369 2.27271 12.8481 1.91844 12.9377 1.8524C13.0937 1.74241 13.1192 1.54321 12.9937 1.40624C12.8672 1.26801 12.6362 1.2457 12.4774 1.35562C12.093 1.62207 11.5853 2.367 12.4189 3.27941C12.7986 3.69484 12.5885 4.22621 12.363 4.58214C11.6294 4.49967 10.7566 4.44484 9.70735 4.43876C9.70589 4.43876 9.70413 4.43876 9.70213 4.43876C9.2991 4.43876 8.97083 4.72191 8.96837 5.07284C8.96568 5.4253 9.29211 5.71312 9.6979 5.71532C11.7451 5.72721 13.0223 5.93195 13.7925 6.13396C13.615 6.24949 13.4497 6.37236 13.3149 6.50419C13.1095 6.70586 12.8843 6.92683 12.6538 7.15428C10.9969 7.37993 9.97908 7.09138 9.95104 7.08263C9.57076 6.9639 9.15236 7.13432 9.01339 7.46414C8.87395 7.7951 9.0697 8.16159 9.45045 8.28252C9.50246 8.29942 10.1697 8.50076 11.2848 8.51759C11.1507 8.65509 11.051 8.76941 10.9678 8.87199C10.6975 8.87132 10.4662 8.86791 10.3003 8.86451C10.2655 8.86077 10.23 8.85736 10.1948 8.85329C9.9661 8.85609 9.73824 8.85923 9.5 8.85923C9.15889 8.85923 8.82739 8.85643 8.50503 8.85115C8.38388 8.84928 8.27072 8.84554 8.15225 8.84267C7.95612 8.83806 7.75745 8.83432 7.56892 8.82805C7.39806 8.82244 7.23688 8.81462 7.07255 8.80774C6.94579 8.80247 6.81472 8.79779 6.69172 8.79192C6.47876 8.78097 6.27618 8.76821 6.07412 8.75539C6.00882 8.75132 5.93953 8.74798 5.87515 8.74357C2.71547 8.52847 0.935426 8.06195 0.740213 7.76024C1.00119 7.35756 4.08281 6.66159 9.49977 6.66159C10.5815 6.66159 11.5654 6.6903 12.4567 6.73765L12.8328 6.36802C12.1 6.23433 11.0218 6.11466 9.49278 6.10625C9.33928 6.10531 9.19354 6.077 9.06148 6.02651C7.1798 6.04888 1.11974e-07 6.23527 1.11974e-07 7.76024V9.57724C-0.000384015 10.6331 0.987591 11.4921 2.20258 11.4921Z" fill="white"/>
</svg>
