<svg width="18" height="12" viewBox="0 0 18 12" fill="none" xmlns="http://www.w3.org/2000/svg">
<path d="M17.6414 9.82763H15.7231V4.76409H16.6195V8.13978C16.6195 8.29014 16.7801 8.41201 16.9781 8.41201C17.1761 8.41201 17.3366 8.29014 17.3366 8.13978V4.76409H17.6414C17.8394 4.76409 18 4.64222 18 4.49186C18 4.34151 17.8394 4.21963 17.6414 4.21963H14.1275V0.272228C14.1275 0.121874 13.9669 0 13.7689 0H4.23109C4.03309 0 3.87253 0.121874 3.87253 0.272228V4.21961H0.358559C0.160559 4.21961 0 4.34151 0 4.49186C0 4.64222 0.160559 4.76409 0.358559 4.76409H0.663328V9.82763H0.358559C0.160559 9.82763 0 9.94951 0 10.0999V11.1616C0 11.3119 0.160559 11.4338 0.358559 11.4338H17.6414C17.8394 11.4338 18 11.3119 18 11.1616V10.0999C18 9.94951 17.8394 9.82763 17.6414 9.82763ZM15.006 4.76409V9.82763H14.1275V4.76409H15.006ZM4.58965 9.82763V4.76409H5.45242V9.82763H4.58965ZM6.16957 4.76409H7.04584V9.82763H6.16957V4.76409ZM11.8304 4.21961H9.34063V1.79672H11.8304V4.21961ZM8.62351 4.21961H6.16957V1.79672H8.62351V4.21961ZM7.76296 4.76409H8.62351V9.82763H7.76296V4.76409ZM9.34063 4.76409H10.237V9.82763H9.34063V4.76409ZM10.9542 4.76409H11.8305V9.82763H10.9542V4.76409ZM12.5476 4.76409H13.4104V9.82763H12.5476V4.76409ZM4.58965 0.544457H13.4104V4.21961H12.5476V1.52449C12.5476 1.37414 12.387 1.25227 12.189 1.25227H5.81098C5.61298 1.25227 5.45242 1.37414 5.45242 1.52449V4.21961H4.58965V0.544457ZM3.8725 9.82763H2.95815V4.76409H3.8725V9.82763ZM1.38048 4.76409H2.24104V9.82763H1.38048V4.76409ZM17.2829 10.3721V10.8893H0.717117V10.3721H17.2829Z" fill="white"/>
<path d="M16.9781 8.73886C16.7801 8.73886 16.6196 8.86074 16.6196 9.01109V9.20164C16.6196 9.352 16.7801 9.47387 16.9781 9.47387C17.1761 9.47387 17.3367 9.352 17.3367 9.20164V9.01109C17.3367 8.86074 17.1761 8.73886 16.9781 8.73886Z" fill="white"/>
</svg>
