<svg width="13" height="19" viewBox="0 0 13 19" fill="none" xmlns="http://www.w3.org/2000/svg">
<path d="M8.48 18.16V12.88L6.72 11.12M6.72 11.12L7.6 5.84L6.72 11.12ZM6.72 11.12H4.96H6.72ZM7.6 5.84C8.48 6.86667 9.888 8.48 12 8.48L7.6 5.84ZM7.6 5.84L7.44266 5.68269C6.94572 5.1857 6.09538 5.44316 5.95757 6.13236L4.96 11.12M4.96 11.12L3.2 18.16L4.96 11.12ZM12 7.16V18.16V7.16ZM3.2 4.96H2.95427C2.57549 4.96 2.23921 5.20238 2.11943 5.56172L1 8.92L2.32 9.36L3.2 4.96ZM8.92 1.88C8.92 2.36601 8.52602 2.76 8.04 2.76C7.55398 2.76 7.16 2.36601 7.16 1.88C7.16 1.39399 7.55398 1 8.04 1C8.52602 1 8.92 1.39399 8.92 1.88Z" fill="white"/>
<path d="M8.48 18.16V12.88L6.72 11.12M6.72 11.12L7.6 5.84M6.72 11.12H4.96M7.6 5.84C8.48 6.86667 9.888 8.48 12 8.48M7.6 5.84L7.44266 5.68269C6.94572 5.1857 6.09538 5.44316 5.95757 6.13236L4.96 11.12M4.96 11.12L3.2 18.16M12 7.16V18.16M3.2 4.96H2.95427C2.57549 4.96 2.23921 5.20238 2.11943 5.56172L1 8.92L2.32 9.36L3.2 4.96ZM8.92 1.88C8.92 2.36601 8.52602 2.76 8.04 2.76C7.55398 2.76 7.16 2.36601 7.16 1.88C7.16 1.39399 7.55398 1 8.04 1C8.52602 1 8.92 1.39399 8.92 1.88Z" stroke="white" stroke-width="1.5" stroke-linecap="round" stroke-linejoin="round"/>
</svg>
