<svg width="15" height="12" viewBox="0 0 15 12" fill="none" xmlns="http://www.w3.org/2000/svg">
<path fill-rule="evenodd" clip-rule="evenodd" d="M5.89606 10.3344L6.69789 11.1854C7.14134 11.656 7.85926 11.656 8.30157 11.1854L9.10344 10.3344C8.21767 9.39429 6.78183 9.39429 5.89606 10.3344ZM2.68869 6.93029L4.29237 8.63233C6.06051 6.7546 8.93898 6.7546 10.7083 8.63233L12.3119 6.93029C9.65463 4.10886 5.34599 4.10886 2.68869 6.93029ZM14.6676 4.42907L13.9156 5.22713C10.3725 1.46685 4.62808 1.46685 1.08387 5.22713L0.331942 4.42907C-0.148937 3.91871 -0.100181 3.0739 0.431734 2.62252C4.5555 -0.874175 10.4451 -0.874175 14.5689 2.62252C15.1008 3.0739 15.1484 3.91871 14.6676 4.42907Z" fill="white"/>
</svg>
