<svg width="10" height="17" viewBox="0 0 10 17" fill="none" xmlns="http://www.w3.org/2000/svg">
<path d="M5 9.8V15.4M5 9.8C3.93913 9.8 2.92172 9.37857 2.17157 8.62842C1.42143 7.87828 1 6.86086 1 5.8V1.8C1 1.58783 1.08429 1.38434 1.23431 1.23431C1.38434 1.08429 1.58783 1 1.8 1H8.2C8.41217 1 8.61566 1.08429 8.76569 1.23431C8.91572 1.38434 9 1.58783 9 1.8V5.8C9 6.32529 8.89654 6.84543 8.69552 7.33073C8.4945 7.81603 8.19986 8.25699 7.82843 8.62842C7.45699 8.99986 7.01604 9.2945 6.53073 9.49552C6.04543 9.69653 5.52529 9.8 5 9.8ZM2.6 15.4H7.4" stroke="white" stroke-width="2" stroke-linecap="round" stroke-linejoin="round"/>
</svg>
