<svg width="23" height="23" viewBox="0 0 23 23" fill="none" xmlns="http://www.w3.org/2000/svg">
<circle cx="11.5" cy="11.5" r="11" stroke="white"/>
<path d="M16 16L13 13M14 10.5C14 10.9596 13.9095 11.4148 13.7336 11.8394C13.5577 12.264 13.2999 12.6499 12.9749 12.9749C12.6499 13.2999 12.264 13.5577 11.8394 13.7336C11.4148 13.9095 10.9596 14 10.5 14C10.0404 14 9.58525 13.9095 9.16061 13.7336C8.73597 13.5577 8.35013 13.2999 8.02513 12.9749C7.70012 12.6499 7.44231 12.264 7.26642 11.8394C7.09053 11.4148 7 10.9596 7 10.5C7 9.57174 7.36875 8.6815 8.02513 8.02513C8.6815 7.36875 9.57174 7 10.5 7C11.4283 7 12.3185 7.36875 12.9749 8.02513C13.6313 8.6815 14 9.57174 14 10.5Z" stroke="white" stroke-linecap="round" stroke-linejoin="round"/>
</svg>
