<svg width="17" height="24" viewBox="0 0 17 24" fill="none" xmlns="http://www.w3.org/2000/svg">
<path d="M10.5713 8.00012C11.1659 7.51673 11.6074 6.83765 11.8327 6.05986C12.058 5.28207 12.0557 4.44532 11.826 3.66908C11.5963 2.89285 11.151 2.21682 10.5537 1.73751C9.95643 1.2582 9.23765 1.00012 8.5 1.00012C7.76235 1.00012 7.04357 1.2582 6.44626 1.73751C5.84896 2.21682 5.40367 2.89285 5.17399 3.66908C4.94431 4.44532 4.94197 5.28207 5.16731 6.05986C5.39264 6.83765 5.83414 7.51673 6.42875 8.00012" stroke="#E7B181" stroke-width="1.25" stroke-linecap="round" stroke-linejoin="round"/>
<path d="M10.5464 8.00024L13 9.59821C12.939 10.0847 12.7986 10.5582 12.5842 11.0002H4.41578C4.20144 10.5582 4.06102 10.0847 4 9.59821L6.45352 8.00024" stroke="#E7B181" stroke-width="1.25" stroke-linecap="round" stroke-linejoin="round"/>
<path d="M10.5489 10.9999C10.5489 15.9799 16 16.7077 16 21.5345C14.9868 22.7364 11.3955 22.9999 8.5 22.9999C5.60454 22.9999 2.01323 22.7368 1 21.5345C1 16.7077 6.45107 15.9799 6.45107 10.9999" stroke="#E7B181" stroke-width="1.25" stroke-linecap="round" stroke-linejoin="round"/>
</svg>
