<svg width="19" height="20" viewBox="0 0 19 20" fill="none" xmlns="http://www.w3.org/2000/svg">
<path d="M10.0174 -0.00012207V2.68655L12.7014 1.13654L13.368 2.29188L10.0174 4.22588V8.84455L14.0174 6.53521V2.66655H15.3507V5.76521L17.678 4.42255L18.3447 5.57721L16.0174 6.92055L18.7014 8.46988L18.0347 9.62521L14.684 7.68988L10.684 9.99921L14.6847 12.3092L18.0347 10.3745L18.7014 11.5292L16.0174 13.0785L18.3447 14.4225L17.678 15.5772L15.3507 14.2339V17.3332H14.0174V13.4639L10.0174 11.1539V15.7732L13.368 17.7079L12.7014 18.8625L10.0174 17.3125V19.9999H8.68403V17.3125L6.00003 18.8625L5.33336 17.7079L8.68403 15.7732V11.1539L4.68403 13.4632V17.3332H3.35069V14.2332L1.024 15.5772L0.357333 14.4225L2.68336 13.0785L0 11.5292L0.666667 10.3745L4.01669 12.3085L8.01669 9.99921L4.01736 7.68988L0.666667 9.62521L0 8.46988L2.68403 6.92055L0.357333 5.57721L1.024 4.42255L3.35069 5.76521V2.66655H4.68403V6.53521L8.68403 8.84455V4.22588L5.33336 2.29188L6.00003 1.13654L8.68403 2.68655V-0.00012207H10.0174Z" fill="#E7B181"/>
</svg>
