<svg width="32" height="32" viewBox="0 0 32 32" fill="none" xmlns="http://www.w3.org/2000/svg">
<rect x="0.5" y="0.5" width="31" height="31" rx="5.5" stroke="white" stroke-opacity="0.5"/>
<path d="M23 20.5086V15.3073C23 14.8064 22.9995 14.5558 22.9387 14.3227C22.8847 14.1161 22.7961 13.9206 22.6762 13.744C22.5408 13.5446 22.3528 13.3793 21.9757 13.0495L17.4757 9.11198C16.7757 8.49952 16.4258 8.19345 16.0319 8.07697C15.6849 7.97434 15.3149 7.97434 14.9679 8.07697C14.5743 8.19336 14.2248 8.49915 13.526 9.11068L9.02447 13.0495C8.64748 13.3793 8.45941 13.5446 8.32409 13.744C8.20418 13.9206 8.11489 14.1161 8.06091 14.3227C8 14.5558 8 14.8064 8 15.3073V20.5086C8 21.3821 8 21.8188 8.14272 22.1635C8.33303 22.6228 8.6978 22.9883 9.15723 23.1786C9.5018 23.3214 9.93862 23.3214 10.8123 23.3214C11.6859 23.3214 12.1232 23.3214 12.4678 23.1786C12.9272 22.9883 13.2919 22.6229 13.4822 22.1635C13.6249 21.8189 13.625 21.3821 13.625 20.5085V19.571C13.625 18.5354 14.4644 17.696 15.5 17.696C16.5356 17.696 17.375 18.5354 17.375 19.571V20.5085C17.375 21.3821 17.375 21.8189 17.5177 22.1635C17.708 22.6229 18.0728 22.9883 18.5322 23.1786C18.8768 23.3214 19.3137 23.3214 20.1872 23.3214C21.0609 23.3214 21.4982 23.3214 21.8428 23.1786C22.3022 22.9883 22.6669 22.6228 22.8572 22.1635C22.9999 21.8188 23 21.3821 23 20.5086Z" stroke="white" stroke-width="2" stroke-linecap="round" stroke-linejoin="round"/>
</svg>
