<svg width="32" height="32" viewBox="0 0 32 32" fill="none" xmlns="http://www.w3.org/2000/svg">
<rect x="0.5" y="0.5" width="31" height="31" rx="5.5" stroke="white" stroke-opacity="0.5"/>
<path d="M22.2375 24.1H3.7125C3.285 24.1 3 23.815 3 23.3875V13.4125C3 12.985 3.285 12.7 3.7125 12.7H22.2375C22.665 12.7 22.95 12.985 22.95 13.4125V23.3875C22.95 23.815 22.665 24.1 22.2375 24.1ZM4.425 22.675H21.525V14.125H4.425V22.675Z" fill="white"/>
<path d="M5.85 13.4125V10.5625C5.85 10.135 6.135 9.85001 6.5625 9.85001H25.0875C25.515 9.85001 25.8 10.135 25.8 10.5625V20.5375C25.8 20.965 25.515 21.25 25.0875 21.25H22.2375V19.825H24.375V11.275H7.275V13.4125H5.85Z" fill="white"/>
<path d="M12.975 21.9625C10.98 21.9625 9.4125 20.395 9.4125 18.4C9.4125 16.405 10.98 14.8375 12.975 14.8375C14.97 14.8375 16.5375 16.405 16.5375 18.4C16.5375 20.395 14.97 21.9625 12.975 21.9625ZM12.975 16.2625C11.835 16.2625 10.8375 17.26 10.8375 18.4C10.8375 19.54 11.835 20.5375 12.975 20.5375C14.115 20.5375 15.1125 19.54 15.1125 18.4C15.1125 17.26 14.115 16.2625 12.975 16.2625Z" fill="white"/>
<path d="M8.7 10.5625V7.7125C8.7 7.285 8.985 7 9.4125 7H27.9375C28.365 7 28.65 7.285 28.65 7.7125V17.6875C28.65 18.115 28.365 18.4 27.9375 18.4H25.0875V16.975H27.225V8.425H10.125V10.5625H8.7Z" fill="white"/>
</svg>
