<svg width="6" height="6" viewBox="0 0 6 6" fill="none" xmlns="http://www.w3.org/2000/svg">
<path fill-rule="evenodd" clip-rule="evenodd" d="M1.7609 0.0368188C1.27253 0.0588538 0.849244 0.178253 0.507448 0.518606C0.164458 0.860747 0.0465424 1.28571 0.0244525 1.769C0.0107209 2.07064 -0.0695742 4.34949 0.163265 4.94712C0.320282 5.3503 0.629532 5.6603 1.0364 5.81783C1.22626 5.89167 1.44298 5.94166 1.7609 5.95625C4.41914 6.07655 5.40453 6.01106 5.82005 4.94712C5.89379 4.75774 5.94453 4.5412 5.95856 4.22408C6.08006 1.55901 5.93887 0.981344 5.47558 0.518606C5.10811 0.152048 4.67586 -0.0974763 1.7609 0.0368188ZM1.78537 5.42027C1.49432 5.40716 1.33641 5.35867 1.23104 5.31787C0.965957 5.21485 0.766851 5.01656 0.664461 4.75303C0.487145 4.29893 0.545955 2.14216 0.561776 1.79317C0.577298 1.45132 0.646552 1.1389 0.887749 0.897708C1.18626 0.599934 1.57193 0.453997 4.19794 0.572512C4.54063 0.587995 4.85377 0.657108 5.09557 0.897708C5.39408 1.19548 5.54214 1.58412 5.42154 4.20005C5.40841 4.49038 5.35975 4.64792 5.31886 4.75303C5.0487 5.44535 4.4272 5.54146 1.78537 5.42027ZM4.2269 1.40689C4.2269 1.60401 4.3872 1.76431 4.58512 1.76431C4.78303 1.76431 4.94363 1.60401 4.94363 1.40689C4.94363 1.20976 4.78303 1.04961 4.58512 1.04961C4.3872 1.04961 4.2269 1.20976 4.2269 1.40689ZM1.4588 2.99639C1.4588 3.84087 2.14508 4.52554 2.99166 4.52554C3.83824 4.52554 4.52452 3.84087 4.52452 2.99639C4.52452 2.15191 3.83824 1.46768 2.99166 1.46768C2.14508 1.46768 1.4588 2.15191 1.4588 2.99639ZM1.99672 2.99639C1.99672 2.44849 2.4421 2.00396 2.99166 2.00396C3.54122 2.00396 3.9866 2.44849 3.9866 2.99639C3.9866 3.54459 3.54122 3.98926 2.99166 3.98926C2.4421 3.98926 1.99672 3.54459 1.99672 2.99639Z" fill="white"/>
</svg>
