<svg width="26" height="17" viewBox="0 0 26 17" fill="none" xmlns="http://www.w3.org/2000/svg">
<path d="M3.87225 8.26962C3.96718 8.34127 4.08419 8.37627 4.20078 8.37627C4.34155 8.37627 4.48169 8.32509 4.58083 8.22548C4.65862 8.14744 6.47085 6.29694 5.0967 4.79333C4.33451 3.9591 4.89727 3.4744 5.02038 3.38402C5.23326 3.23352 5.26785 2.96092 5.09617 2.77349C4.92313 2.58433 4.60679 2.5539 4.39012 2.70395C3.86363 3.06884 3.16883 4.08813 4.30991 5.33669C5.16556 6.27263 3.83398 7.64082 3.82095 7.65379C3.64012 7.8361 3.6622 8.11208 3.87225 8.26962Z" fill="#E7B181"/>
<path d="M8.26836 6.52268C8.3633 6.59432 8.48031 6.62932 8.5969 6.62932C8.73766 6.62932 8.8778 6.57815 8.97684 6.47854C9.05463 6.4005 10.8669 4.55 9.49281 3.0463C8.73062 2.21215 9.29338 1.72737 9.41649 1.63699C9.62938 1.48648 9.66396 1.21389 9.49229 1.02646C9.31935 0.8373 9.00333 0.806778 8.78623 0.95692C8.25974 1.32181 7.56494 2.3411 8.70602 3.58966C9.56178 4.5256 8.2301 5.89378 8.21706 5.90676C8.03634 6.08925 8.05842 6.36514 8.26836 6.52268Z" fill="#E7B181"/>
<path d="M12.1603 6.52268C12.2552 6.59432 12.3722 6.62932 12.4888 6.62932C12.6296 6.62932 12.7697 6.57815 12.8685 6.47854C12.9465 6.4005 14.7588 4.55 13.3847 3.0463C12.6225 2.21215 13.1857 1.72737 13.3082 1.63699C13.5214 1.48648 13.556 1.21389 13.3842 1.02646C13.2113 0.8373 12.8948 0.806778 12.6781 0.95692C12.1517 1.32181 11.457 2.3411 12.5979 3.58966C13.4534 4.5256 12.122 5.89378 12.109 5.90676C11.9281 6.08925 11.9508 6.36514 12.1603 6.52268Z" fill="#E7B181"/>
<path d="M22.3785 7.89445C23.9046 7.89445 25.1418 6.81904 25.1418 5.49245C25.1418 4.16586 23.9046 3.09045 22.3785 3.09045C20.8523 3.09045 19.6151 4.16586 19.6151 5.49245C19.6151 6.81904 20.8523 7.89445 22.3785 7.89445Z" fill="#E7B181"/>
<path d="M3.01408 16.5755H22.9855C24.6482 16.5755 26.0001 15.4001 26.0001 13.9551V11.4687C26.0001 10.9688 25.4328 10.5752 24.5393 10.2635C24.534 10.4178 24.5108 10.5732 24.4672 10.7275C24.43 10.8601 24.3892 10.9881 24.3469 11.1135C24.6962 11.2384 24.9112 11.3591 24.9829 11.465C24.973 11.4807 24.9558 11.4969 24.9397 11.5135C24.9229 11.5307 24.9098 11.5472 24.8861 11.5651C24.8602 11.5848 24.8233 11.6051 24.789 11.6252C24.7581 11.6435 24.7306 11.6614 24.6923 11.6806C24.6501 11.7011 24.5977 11.7224 24.5471 11.7437C24.5029 11.7629 24.4617 11.7817 24.4097 11.8009C24.4048 11.803 24.3988 11.8047 24.394 11.8067C24.2807 11.8388 24.1604 11.8776 24.0231 11.9296C23.9038 11.9752 23.7739 12.0162 23.6462 12.0584C23.872 11.6238 24.0933 11.1074 24.2566 10.5256C24.5874 9.35457 23.4835 8.30704 22.2063 8.2407C21.9369 8.22663 21.643 8.25203 21.3412 8.29873C20.8388 7.99616 19.8339 7.55944 17.9625 7.25934C18.3237 6.57333 18.5454 5.63035 17.7809 4.79356C17.019 3.95942 17.5817 3.47463 17.7043 3.38425C17.9178 3.23375 17.9526 2.96115 17.7809 2.77373C17.6078 2.58456 17.2918 2.55404 17.0744 2.70446C16.5484 3.06907 15.8537 4.08845 16.9944 5.33701C17.5139 5.9055 17.2265 6.63264 16.9178 7.11971C15.9139 7.00685 14.7197 6.93182 13.2838 6.92351C13.2818 6.92351 13.2794 6.92351 13.2766 6.92351C12.7251 6.92351 12.2759 7.31097 12.2726 7.79119C12.2689 8.27351 12.7156 8.66737 13.2709 8.67038C16.0724 8.68665 17.82 8.96683 18.8741 9.24326C18.6311 9.40135 18.405 9.5695 18.2205 9.74989C17.9394 10.0259 17.6312 10.3282 17.3158 10.6395C15.0485 10.9483 13.6556 10.5534 13.6173 10.5414C13.0969 10.379 12.5243 10.6122 12.3342 11.0635C12.1433 11.5164 12.4112 12.0179 12.9322 12.1834C13.0034 12.2065 13.9165 12.482 15.4424 12.5051C15.259 12.6932 15.1225 12.8497 15.0087 12.99C14.6387 12.9891 14.3223 12.9845 14.0952 12.9798C14.0476 12.9747 13.999 12.97 13.9508 12.9645C13.6379 12.9683 13.3261 12.9726 13.0001 12.9726C12.5333 12.9726 12.0796 12.9688 11.6385 12.9615C11.4727 12.959 11.3179 12.9539 11.1558 12.9499C10.8874 12.9436 10.6155 12.9385 10.3575 12.9299C10.1237 12.9222 9.90313 12.9115 9.67826 12.9021C9.5048 12.8949 9.32545 12.8885 9.15713 12.8805C8.86571 12.8655 8.58848 12.848 8.31199 12.8305C8.22263 12.8249 8.12781 12.8203 8.03971 12.8143C3.71592 12.52 1.28006 11.8816 1.01293 11.4687C1.37005 10.9177 5.58703 9.96528 12.9997 9.96528C14.48 9.96528 15.8264 10.0046 17.0461 10.0694L17.5608 9.56356C16.558 9.38061 15.0826 9.21685 12.9902 9.20534C12.7801 9.20406 12.5807 9.16531 12.4 9.09623C9.82502 9.12684 1.53228e-07 9.38189 1.53228e-07 11.4687V13.9551C-0.000525496 15.4 1.35145 16.5755 3.01408 16.5755Z" fill="#E7B181"/>
</svg>
