<svg width="15" height="11" viewBox="0 0 15 11" fill="none" xmlns="http://www.w3.org/2000/svg">
<rect x="0.5" y="0.5" width="14" height="9.28571" rx="4.64286" fill="white" stroke="#D9D9D9"/>
<path d="M8.61211 5.19727C8.61211 6.83116 7.30278 8.15569 5.68764 8.15569C4.0725 8.15569 2.76317 6.83116 2.76317 5.19727C2.76317 3.56338 4.0725 2.23885 5.68764 2.23885C7.30278 2.23885 8.61211 3.56338 8.61211 5.19727Z" fill="#ED0006"/>
<path d="M12.406 5.19727C12.406 6.83116 11.0967 8.15569 9.48155 8.15569C7.86641 8.15569 6.55708 6.83116 6.55708 5.19727C6.55708 3.56338 7.86641 2.23885 9.48155 2.23885C11.0967 2.23885 12.406 3.56338 12.406 5.19727Z" fill="#0099DF"/>
<path fill-rule="evenodd" clip-rule="evenodd" d="M7.5846 7.44896C8.2134 6.90633 8.61211 6.0989 8.61211 5.19727C8.61211 4.29564 8.2134 3.48822 7.5846 2.94559C6.95581 3.48822 6.5571 4.29564 6.5571 5.19727C6.5571 6.0989 6.95581 6.90633 7.5846 7.44896Z" fill="#6C6BBD"/>
</svg>
