<svg width="15" height="11" viewBox="0 0 15 11" fill="none" xmlns="http://www.w3.org/2000/svg">
<rect x="0.5" y="0.5" width="14" height="9.28571" rx="4.64286" fill="white" stroke="#D9D9D9"/>
<path fill-rule="evenodd" clip-rule="evenodd" d="M7.60714 7.35297C7.09647 7.79366 6.43404 8.0597 5.71019 8.0597C4.09504 8.0597 2.78571 6.73517 2.78571 5.10127C2.78571 3.46738 4.09504 2.14285 5.71019 2.14285C6.43404 2.14285 7.09647 2.40889 7.60714 2.84958C8.11782 2.40889 8.78024 2.14285 9.5041 2.14285C11.1192 2.14285 12.4286 3.46738 12.4286 5.10127C12.4286 6.73517 11.1192 8.0597 9.5041 8.0597C8.78024 8.0597 8.11782 7.79366 7.60714 7.35297Z" fill="#ED0006"/>
<path fill-rule="evenodd" clip-rule="evenodd" d="M7.60714 7.35297C8.23594 6.81034 8.63466 6.00291 8.63466 5.10127C8.63466 4.19964 8.23594 3.39221 7.60714 2.84958C8.11781 2.40889 8.78024 2.14285 9.50409 2.14285C11.1192 2.14285 12.4286 3.46738 12.4286 5.10127C12.4286 6.73517 11.1192 8.0597 9.50409 8.0597C8.78024 8.0597 8.11781 7.79366 7.60714 7.35297Z" fill="#F9A000"/>
<path fill-rule="evenodd" clip-rule="evenodd" d="M7.60715 2.84959C8.23594 3.39222 8.63465 4.19965 8.63465 5.10128C8.63465 6.00291 8.23594 6.81033 7.60715 7.35296C6.97836 6.81033 6.57964 6.00291 6.57964 5.10128C6.57964 4.19965 6.97836 3.39222 7.60715 2.84959Z" fill="#FF5E00"/>
</svg>
