<svg width="15" height="11" viewBox="0 0 15 11" fill="none" xmlns="http://www.w3.org/2000/svg">
<rect x="0.5" y="0.5" width="14" height="9.28571" rx="4.64285" fill="white" stroke="#D9D9D9"/>
<path fill-rule="evenodd" clip-rule="evenodd" d="M4.24285 6.53183H3.57616C3.53054 6.53183 3.49174 6.56499 3.48462 6.61001L3.21498 8.31961C3.20962 8.35335 3.23574 8.38376 3.26996 8.38376H3.58825C3.63387 8.38376 3.67267 8.3506 3.67979 8.30549L3.75251 7.84439C3.75953 7.79923 3.79842 7.76612 3.84395 7.76612H4.055C4.49418 7.76612 4.74762 7.55359 4.81385 7.13246C4.84367 6.94822 4.81511 6.80345 4.72881 6.70204C4.63407 6.59075 4.46598 6.53183 4.24285 6.53183ZM4.31977 7.15624C4.28332 7.39547 4.10053 7.39547 3.92379 7.39547H3.82319L3.89377 6.94867C3.89796 6.9217 3.92135 6.9018 3.94865 6.9018H3.99476C4.11515 6.9018 4.22873 6.9018 4.28743 6.97042C4.32239 7.01138 4.33312 7.07219 4.31977 7.15624ZM6.23576 7.14857H5.9165C5.88929 7.14857 5.86579 7.16846 5.86159 7.19549L5.84747 7.28476L5.82514 7.25242C5.75603 7.15209 5.60192 7.11857 5.44809 7.11857C5.09526 7.11857 4.79395 7.38577 4.73526 7.76061C4.70476 7.94756 4.74812 8.12634 4.85418 8.25104C4.95149 8.36567 5.09071 8.41344 5.25631 8.41344C5.54057 8.41344 5.69824 8.23064 5.69824 8.23064L5.68398 8.31938C5.67862 8.35331 5.70474 8.38371 5.73875 8.38371H6.02635C6.07209 8.38371 6.11066 8.35055 6.11788 8.30544L6.29044 7.21272C6.2959 7.17911 6.26987 7.14857 6.23576 7.14857ZM5.79072 7.76995C5.75991 7.95234 5.61514 8.07478 5.43054 8.07478C5.33783 8.07478 5.26371 8.04505 5.21616 7.9887C5.16898 7.93276 5.15102 7.8531 5.16604 7.7644C5.19483 7.58355 5.34203 7.45714 5.52383 7.45714C5.61447 7.45714 5.68818 7.48723 5.73672 7.54407C5.78535 7.6015 5.80466 7.68162 5.79072 7.76995ZM7.61527 7.14852H7.93611C7.98104 7.14852 8.00725 7.19891 7.98172 7.23577L6.91466 8.77601C6.89739 8.80096 6.86892 8.8158 6.83851 8.8158H6.51808C6.47296 8.8158 6.44662 8.76501 6.47274 8.72806L6.805 8.25907L6.45163 7.22201C6.4394 7.18597 6.46602 7.14852 6.50436 7.14852H6.81961C6.86057 7.14852 6.89671 7.17541 6.90853 7.21461L7.09606 7.84096L7.53858 7.18917C7.5559 7.16373 7.58468 7.14852 7.61527 7.14852Z" fill="#253B80"/>
<path fill-rule="evenodd" clip-rule="evenodd" d="M11.0938 8.31959L11.3674 6.57873C11.3716 6.55171 11.395 6.53181 11.4222 6.53172H11.7302C11.7642 6.53172 11.7903 6.56222 11.785 6.59596L11.5152 8.30547C11.5081 8.35058 11.4693 8.38374 11.4236 8.38374H11.1485C11.1145 8.38374 11.0884 8.35334 11.0938 8.31959ZM8.99831 6.53181H8.3315C8.28598 6.53181 8.24718 6.56497 8.24005 6.60999L7.97041 8.31959C7.96504 8.35334 7.99117 8.38374 8.02523 8.38374H8.36736C8.39917 8.38374 8.42637 8.36055 8.43133 8.32897L8.50784 7.84437C8.51488 7.79921 8.55377 7.7661 8.59929 7.7661H8.81023C9.2495 7.7661 9.5029 7.55357 9.56917 7.13245C9.59908 6.94821 9.57034 6.80344 9.48409 6.70202C9.38939 6.59073 9.22144 6.53181 8.99831 6.53181ZM9.07523 7.15622C9.03887 7.39545 8.85607 7.39545 8.67923 7.39545H8.57871L8.64941 6.94866C8.6536 6.92168 8.67679 6.90178 8.70417 6.90178H8.75028C8.8706 6.90178 8.98428 6.90178 9.04293 6.9704C9.07793 7.01136 9.08858 7.07218 9.07523 7.15622ZM10.991 7.14855H10.672C10.6446 7.14855 10.6213 7.16845 10.6172 7.19547L10.6031 7.28475L10.5806 7.2524C10.5115 7.15207 10.3575 7.11855 10.2037 7.11855C9.85085 7.11855 9.54963 7.38576 9.49094 7.7606C9.46054 7.94755 9.50371 8.12633 9.60977 8.25102C9.70726 8.36565 9.8463 8.41343 10.0119 8.41343C10.2962 8.41343 10.4538 8.23063 10.4538 8.23063L10.4396 8.31937C10.4342 8.35329 10.4603 8.3837 10.4946 8.3837H10.782C10.8275 8.3837 10.8663 8.35054 10.8735 8.30543L11.0461 7.2127C11.0514 7.17909 11.0253 7.14855 10.991 7.14855ZM10.546 7.76994C10.5154 7.95233 10.3705 8.07476 10.1858 8.07476C10.0933 8.07476 10.019 8.04503 9.97144 7.98869C9.92425 7.93275 9.90652 7.85308 9.92136 7.76439C9.95028 7.58353 10.0973 7.45712 10.2791 7.45712C10.3698 7.45712 10.4435 7.48721 10.492 7.54406C10.5409 7.60148 10.5602 7.6816 10.546 7.76994Z" fill="#179BD7"/>
<path d="M6.71014 5.92023L6.79211 5.39963L6.60954 5.39539H5.73773L6.3436 1.55375C6.34545 1.54215 6.35158 1.53134 6.36052 1.52366C6.36945 1.51598 6.38091 1.51175 6.39282 1.51175H7.86282C8.35085 1.51175 8.68762 1.6133 8.86347 1.81374C8.94589 1.90778 8.9984 2.00604 9.0238 2.11417C9.05042 2.22764 9.05091 2.3632 9.02488 2.52854L9.02299 2.54061V2.64654L9.10545 2.69325C9.17488 2.73008 9.23001 2.77223 9.27233 2.8205C9.34288 2.9009 9.38849 3.00308 9.40776 3.12422C9.42765 3.24882 9.42106 3.39707 9.38849 3.56492C9.35087 3.75799 9.29006 3.92615 9.20795 4.06375C9.13239 4.19054 9.03616 4.29567 8.92193 4.37719C8.81285 4.45461 8.68324 4.51339 8.53672 4.55101C8.3947 4.58796 8.23284 4.60664 8.05527 4.60664H7.94086C7.85908 4.60664 7.77959 4.63609 7.71724 4.68892C7.65471 4.74283 7.6133 4.81646 7.60062 4.89703L7.59201 4.9439L7.44719 5.86145L7.44061 5.89515C7.43889 5.90584 7.43592 5.91116 7.43154 5.91477C7.42762 5.91802 7.42198 5.92023 7.41647 5.92023H6.71014Z" fill="#253B80"/>
<path d="M9.18351 2.55287C9.17913 2.58092 9.17412 2.6096 9.16848 2.63906C8.97459 3.63438 8.31138 3.97823 7.4643 3.97823H7.03302C6.92944 3.97823 6.84215 4.05345 6.826 4.15563L6.60517 5.55608L6.54264 5.95303C6.53213 6.02011 6.58388 6.08061 6.65155 6.08061H7.41652C7.50711 6.08061 7.58403 6.01479 7.59828 5.92546L7.60582 5.88658L7.74986 4.97259L7.75911 4.92247C7.77319 4.83283 7.85028 4.76701 7.94087 4.76701H8.05528C8.79639 4.76701 9.37659 4.46611 9.54617 3.59536C9.617 3.23162 9.58032 2.9279 9.39288 2.71429C9.33617 2.64988 9.26579 2.59644 9.18351 2.55287Z" fill="#179BD7"/>
<path d="M8.98063 2.47208C8.95104 2.46346 8.92045 2.45562 8.8891 2.44857C8.85761 2.44168 8.82531 2.43556 8.79211 2.43024C8.6758 2.41143 8.54841 2.4025 8.41189 2.4025H7.25971C7.23133 2.4025 7.2044 2.40892 7.18027 2.42052C7.12712 2.44606 7.08765 2.49637 7.07809 2.55796L6.83294 4.11042L6.8259 4.1557C6.84206 4.05352 6.92935 3.9783 7.03293 3.9783H7.46421C8.31129 3.9783 8.97454 3.6343 9.16839 2.63914C9.17417 2.60968 9.17904 2.581 9.18341 2.55295C9.13438 2.52693 9.08123 2.50468 9.02403 2.48571C9.00995 2.48101 8.99538 2.47647 8.98063 2.47208Z" fill="#222D65"/>
<path d="M7.07809 2.55792C7.08765 2.49633 7.12717 2.44603 7.18027 2.42064C7.20459 2.40904 7.23138 2.40261 7.25972 2.40261H8.41194C8.54845 2.40261 8.67585 2.41155 8.79211 2.43035C8.82536 2.43568 8.85766 2.44179 8.88915 2.44869C8.9205 2.45574 8.95104 2.46358 8.98068 2.4722C8.99539 2.47659 9.00996 2.48113 9.02422 2.48568C9.08142 2.50464 9.13456 2.52705 9.1836 2.55291C9.2413 2.18509 9.18315 1.93465 8.98429 1.70788C8.76504 1.45823 8.36931 1.35135 7.86296 1.35135H6.39292C6.28947 1.35135 6.20128 1.42657 6.18526 1.52891L5.57299 5.41004C5.5609 5.48682 5.62013 5.55612 5.69755 5.55612H6.60513L6.83299 4.11037L7.07809 2.55792Z" fill="#253B80"/>
</svg>
