<svg width="8" height="9" viewBox="0 0 8 9" fill="none" xmlns="http://www.w3.org/2000/svg">
<path d="M5.58333 2.66667C5.58333 3.10869 5.40774 3.53262 5.09518 3.84518C4.78262 4.15774 4.35869 4.33333 3.91667 4.33333C3.47464 4.33333 3.05072 4.15774 2.73816 3.84518C2.42559 3.53262 2.25 3.10869 2.25 2.66667C2.25 2.22464 2.42559 1.80072 2.73816 1.48816C3.05072 1.17559 3.47464 1 3.91667 1C4.35869 1 4.78262 1.17559 5.09518 1.48816C5.40774 1.80072 5.58333 2.22464 5.58333 2.66667ZM3.91667 5.58333C3.14312 5.58333 2.40125 5.89062 1.85427 6.43761C1.30729 6.98459 1 7.72645 1 8.5H6.83333C6.83333 7.72645 6.52604 6.98459 5.97906 6.43761C5.43208 5.89062 4.69021 5.58333 3.91667 5.58333Z" stroke="#E7B181" stroke-linecap="round" stroke-linejoin="round"/>
</svg>
