<svg width="26" height="18" viewBox="0 0 26 18" fill="none" xmlns="http://www.w3.org/2000/svg">
<path d="M25.4821 15.0569H22.7112V7.74291H24.006V12.6189C24.006 12.8361 24.2379 13.0121 24.5239 13.0121C24.8099 13.0121 25.0418 12.8361 25.0418 12.6189V7.74291H25.482C25.768 7.74291 25.9999 7.56687 25.9999 7.34969C25.9999 7.13252 25.768 6.95648 25.482 6.95648H20.4063V1.25467C20.4063 1.03749 20.1744 0.86145 19.8884 0.86145H6.11157C5.82557 0.86145 5.59366 1.03749 5.59366 1.25467V6.95644H0.517918C0.231918 6.95644 0 7.13252 0 7.34969C0 7.56687 0.231918 7.74291 0.517918 7.74291H0.958141V15.0569H0.517918C0.231918 15.0569 0 15.233 0 15.4501V16.9837C0 17.2009 0.231918 17.3769 0.517918 17.3769H25.4821C25.7681 17.3769 26 17.2009 26 16.9837V15.4501C26 15.233 25.7681 15.0569 25.4821 15.0569ZM21.6753 7.74291V15.0569H20.4064V7.74291H21.6753ZM6.62949 15.0569V7.74291H7.87572V15.0569H6.62949ZM8.9116 7.74291H10.1773V15.0569H8.9116V7.74291ZM17.0884 6.95644H13.492V3.45672H17.0884V6.95644ZM12.4562 6.95644H8.9116V3.45672H12.4562V6.95644ZM11.2132 7.74291H12.4562V15.0569H11.2132V7.74291ZM13.492 7.74291H14.7868V15.0569H13.492V7.74291ZM15.8227 7.74291H17.0884V15.0569H15.8227V7.74291ZM18.1243 7.74291H19.3705V15.0569H18.1243V7.74291ZM6.62949 1.64789H19.3705V6.95644H18.1243V3.0635C18.1243 2.84632 17.8924 2.67028 17.6064 2.67028H8.39363C8.10763 2.67028 7.87572 2.84632 7.87572 3.0635V6.95644H6.62949V1.64789ZM5.59361 15.0569H4.27289V7.74291H5.59361V15.0569ZM1.99403 7.74291H3.23705V15.0569H1.99403V7.74291ZM24.9642 15.8434V16.5905H1.03584V15.8434H24.9642Z" fill="#E7B181"/>
</svg>
