<svg width="6" height="6" viewBox="0 0 6 6" fill="none" xmlns="http://www.w3.org/2000/svg">
<path d="M3.123 0.192935C3.42994 0.188248 3.73463 0.190685 4.03913 0.188248C4.04925 0.56906 4.20375 0.91181 4.44957 1.16569L4.44919 1.16531C4.71375 1.40362 5.058 1.55812 5.4375 1.58437L5.44275 1.58475V2.529C5.08425 2.52 4.74713 2.43731 4.44319 2.29519L4.45856 2.30156C4.31156 2.23087 4.18725 2.15831 4.06913 2.07731L4.07888 2.08369C4.07663 2.76787 4.08113 3.45206 4.07419 4.13381C4.05488 4.48125 3.93938 4.79812 3.75413 5.06269L3.75788 5.05687C3.44813 5.5005 2.94638 5.79169 2.37581 5.80894H2.37319C2.35013 5.81006 2.32294 5.81062 2.29556 5.81062C1.97119 5.81062 1.668 5.72025 1.40963 5.56331L1.41713 5.56762C0.946876 5.28469 0.622501 4.80056 0.562501 4.2375L0.561751 4.22981C0.557064 4.11262 0.554814 3.99544 0.559501 3.88069C0.651376 2.98462 1.40213 2.29144 2.31469 2.29144C2.41725 2.29144 2.51775 2.30025 2.61544 2.31694L2.60494 2.31544C2.60963 2.66212 2.59556 3.009 2.59556 3.35569C2.51625 3.327 2.42475 3.31031 2.32931 3.31031C1.97906 3.31031 1.68113 3.53419 1.57088 3.84675L1.56919 3.85237C1.54425 3.93244 1.52981 4.0245 1.52981 4.11975C1.52981 4.15837 1.53225 4.19662 1.53675 4.23412L1.53638 4.22962C1.59863 4.61325 1.9275 4.90275 2.32406 4.90275C2.3355 4.90275 2.34675 4.90256 2.358 4.902H2.35631C2.63063 4.89375 2.86875 4.74619 3.00338 4.52812L3.00525 4.52475C3.05531 4.455 3.08963 4.37062 3.10106 4.27894L3.10125 4.27631C3.12469 3.85687 3.11531 3.43987 3.11756 3.02044C3.11981 2.07619 3.11531 1.13419 3.12225 0.192373L3.123 0.192935Z" fill="white"/>
</svg>
