<svg width="17" height="26" viewBox="0 0 17 26" fill="none" xmlns="http://www.w3.org/2000/svg">
<path d="M11.2 24.4002V17.2002L8.8 14.8002M8.8 14.8002L10 7.60024M8.8 14.8002H6.4M10 7.60024C11.2 9.00025 13.12 11.2002 16 11.2002M10 7.60024L9.78544 7.38573C9.1078 6.70802 7.94824 7.0591 7.76032 7.99892L6.4 14.8002M6.4 14.8002L4 24.4002M16 9.40024V24.4002M4 6.40024H3.66491C3.1484 6.40024 2.68983 6.73076 2.5265 7.22077L1 11.8002L2.8 12.4002L4 6.40024ZM11.8 2.20024C11.8 2.86298 11.2628 3.40024 10.6 3.40024C9.93724 3.40024 9.4 2.86298 9.4 2.20024C9.4 1.53751 9.93724 1.00024 10.6 1.00024C11.2628 1.00024 11.8 1.53751 11.8 2.20024Z" stroke="#E7B181" stroke-width="1.5" stroke-linecap="round" stroke-linejoin="round"/>
</svg>
