<svg width="15" height="11" viewBox="0 0 15 11" fill="none" xmlns="http://www.w3.org/2000/svg">
<rect x="0.5" y="0.5" width="14" height="9.28571" rx="4.64286" fill="white" stroke="#D9D9D9"/>
<path fill-rule="evenodd" clip-rule="evenodd" d="M4.55368 6.96782H3.64498L2.96355 4.36816C2.93121 4.24857 2.86254 4.14285 2.76152 4.09302C2.50942 3.96781 2.23162 3.86815 1.92857 3.81789V3.71781H3.39243C3.59447 3.71781 3.74599 3.86815 3.77125 4.04276L4.12481 5.91799L5.03307 3.71781H5.91653L4.55368 6.96782ZM6.42161 6.96782H5.56341L6.27008 3.71781H7.12829L6.42161 6.96782ZM8.23859 4.61816C8.26384 4.44311 8.41537 4.34303 8.59215 4.34303C8.86994 4.3179 9.17255 4.36816 9.42509 4.49294L9.57662 3.7932C9.32407 3.69311 9.04628 3.64285 8.79418 3.64285C7.96123 3.64285 7.35513 4.09303 7.35513 4.71781C7.35513 5.19312 7.78445 5.44268 8.0875 5.59303C8.41537 5.74294 8.54164 5.84303 8.51638 5.99295C8.51638 6.21782 8.26384 6.3179 8.01174 6.3179C7.70869 6.3179 7.40564 6.24295 7.12829 6.11773L6.97676 6.8179C7.27981 6.94269 7.60767 6.99295 7.91072 6.99295C8.84469 7.01764 9.42509 6.5679 9.42509 5.89286C9.42509 5.04277 8.23859 4.99294 8.23859 4.61816V4.61816ZM12.4286 6.96782L11.7472 3.71781H11.0152C10.8637 3.71781 10.7122 3.81789 10.6617 3.96781L9.39984 6.96782H10.2833L10.4596 6.49294H11.5451L11.6461 6.96782H12.4286ZM11.1415 4.59303L11.3936 5.8179H10.6869L11.1415 4.59303Z" fill="#172B85"/>
</svg>
