<svg width="23" height="18" viewBox="0 0 23 18" fill="none" xmlns="http://www.w3.org/2000/svg">
<path fill-rule="evenodd" clip-rule="evenodd" d="M9.04062 15.8459L10.2701 17.1508C10.95 17.8724 12.0508 17.8724 12.7291 17.1508L13.9586 15.8459C12.6004 14.4044 10.3988 14.4044 9.04062 15.8459ZM4.12265 10.6263L6.58163 13.2361C9.29277 10.3569 13.7064 10.3569 16.4193 13.2361L18.8783 10.6263C14.8038 6.30013 8.19718 6.30013 4.12265 10.6263ZM22.4902 6.79112L21.3373 8.0148C15.9046 2.24904 7.09639 2.24904 1.66193 8.0148L0.508977 6.79112C-0.228369 6.00857 -0.153611 4.71318 0.661992 4.02108C6.98509 -1.34052 16.0159 -1.34052 22.3389 4.02108C23.1545 4.71318 23.2276 6.00857 22.4902 6.79112Z" fill="#E7B181"/>
</svg>
