<svg width="15" height="26" viewBox="0 0 20 18" fill="none" xmlns="http://www.w3.org/2000/svg">
<path d="M7.5 15.2999V24.3999M7.5 15.2999C5.77609 15.2999 4.12279 14.6151 2.90381 13.3961C1.68482 12.1771 1 10.5238 1 8.79988V2.29988C1 1.9551 1.13696 1.62444 1.38076 1.38064C1.62456 1.13684 1.95522 0.999878 2.3 0.999878H12.7C13.0448 0.999878 13.3754 1.13684 13.6192 1.38064C13.863 1.62444 14 1.9551 14 2.29988V8.79988C14 9.65347 13.8319 10.4987 13.5052 11.2873C13.1786 12.0759 12.6998 12.7925 12.0962 13.3961C11.4926 13.9996 10.7761 14.4784 9.98744 14.8051C9.19883 15.1317 8.35359 15.2999 7.5 15.2999ZM3.6 24.3999H11.4" stroke="#E7B181" stroke-width="2" stroke-linecap="round" stroke-linejoin="round"/>
</svg>
